<?xml version="1.0" standalone="no"?>
<!DOCTYPE svg PUBLIC "-//W3C//DTD SVG 20010904//EN"
 "http://www.w3.org/TR/2001/REC-SVG-20010904/DTD/svg10.dtd">
<svg version="1.0" xmlns="http://www.w3.org/2000/svg"
 width="100.000000pt" height="100.000000pt" viewBox="0 0 100.000000 100.000000"
 preserveAspectRatio="xMidYMid meet">
<metadata>
Created by potrace 1.14, written by Peter Selinger 2001-2017
</metadata>
<g transform="translate(0.000000,100.000000) scale(0.100000,-0.100000)"
fill="#000000" stroke="none">
<path d="M377 984 c-159 -41 -292 -163 -349 -321 -26 -73 -32 -197 -13 -278
13 -57 50 -145 60 -145 3 0 66 44 140 98 74 53 164 117 199 142 34 25 84 64
111 88 50 44 65 51 65 29 0 -14 -52 -57 -70 -57 -5 0 -10 -5 -10 -12 0 -6 -2
-9 -5 -6 -3 3 -20 -9 -38 -26 -18 -17 -71 -65 -117 -106 -47 -41 -102 -91
-123 -110 -39 -36 -68 -99 -60 -131 8 -30 49 -64 115 -97 248 -120 551 -15
667 232 93 198 57 410 -98 565 -127 128 -305 179 -474 135z m447 -256 c8 -5 6
-13 -6 -24 -15 -15 -18 -16 -33 -1 -14 15 -14 18 2 35 10 10 20 13 22 7 2 -5
9 -13 15 -17z m-144 -78 c0 -5 -5 -10 -11 -10 -5 0 -8 -4 -5 -9 4 -5 0 -12 -6
-14 -7 -3 -1 -6 15 -6 15 -1 27 -3 27 -6 0 -3 -11 -23 -25 -45 -18 -28 -51
-55 -121 -96 -52 -31 -98 -53 -102 -49 -4 4 10 22 30 41 21 19 34 34 28 34 -5
0 -12 -4 -15 -10 -3 -5 -11 -10 -16 -10 -6 0 18 24 53 52 34 29 65 56 68 60
10 13 33 -9 25 -23 -7 -11 -5 -12 6 -1 11 10 11 16 1 32 -17 27 -15 47 6 59
22 13 42 14 42 1z m-250 -251 c0 -11 -29 -44 -31 -35 -5 22 -3 32 6 38 15 11
25 10 25 -3z m-67 -36 c-7 -2 -13 -9 -13 -15 0 -6 7 -8 15 -4 25 9 17 0 -25
-29 -22 -15 -43 -26 -46 -23 -7 8 58 78 71 77 5 0 4 -3 -2 -6z"/>
</g>
</svg>
